<svg width="18" height="18" viewBox="0 0 18 18" fill="none" xmlns="http://www.w3.org/2000/svg">
    <path d="M17.1052 15.0754L13.86 11.8303C13.7136 11.6838 13.515 11.6024 13.3067 11.6024H12.7762C13.6745 10.4535 14.2083 9.0083 14.2083 7.43619C14.2083 3.69632 11.178 0.666016 7.43814 0.666016C3.69827 0.666016 0.667969 3.69632 0.667969 7.43619C0.667969 11.1761 3.69827 14.2064 7.43814 14.2064C9.01025 14.2064 10.4554 13.6726 11.6044 12.7742V13.3048C11.6044 13.5131 11.6858 13.7116 11.8322 13.8581L15.0774 17.1032C15.3833 17.4092 15.8781 17.4092 16.1808 17.1032L17.1019 16.1821C17.4079 15.8761 17.4079 15.3814 17.1052 15.0754ZM7.43814 11.6024C5.13693 11.6024 3.27188 9.74065 3.27188 7.43619C3.27188 5.13498 5.13368 3.26993 7.43814 3.26993C9.73935 3.26993 11.6044 5.13173 11.6044 7.43619C11.6044 9.7374 9.7426 11.6024 7.43814 11.6024Z" fill="#143352" fill-opacity="0.65"/>
</svg>